<svg xmlns="http://www.w3.org/2000/svg" xmlns:xlink="http://www.w3.org/1999/xlink" viewBox="0 0 600 600"><defs><circle id="a" cx="302" cy="300" r="300"/></defs><g fill="none" fill-rule="evenodd"><mask id="b" fill="#fff"><use xlink:href="#a"/></mask><use xlink:href="#a" fill="#000"/><path fill="#FFF" d="m474.626 436.274-4.2 17.373-5.279 16.593-4.018 10.423-9.823 18.137-42.507 42.808-16.239 2.134h-24.35l-23.874-5.967-12.084-3.5h-11.144c-1.92 0-6.018-1.167-12.296-3.5l-9.313-1.5-9.763-2.597-23.133-2.477-4.02-2.38-6.43-5.582-3.898-6.694-10.116-2.606-20.794-16.931-3.205-6.754v-4.21l-13.1-18.17-4.437-14.462-1.898-8.524-3.571-9.089-4.846-4.13v-4.745l-4.362-4.596-4.686-4.403-8.294-3.789-5.143-4.361-13.158-3-4.937-3.275-9.004 10.636c-6.12 5.363-9.18 9.625-9.18 12.788 0 3.164-3.372 7.21-10.115 12.142l-9.639-3.267v-21.663l7.011-1.83 16.137-8.806 5.786-7.646-2.468-13.664-6.712-13.678-3.526-8.569-16.228 4.832-12.534 3.737L92 347.775l7.235-4.797h22.174V312.5s4.472-6.58 4.472-13.152c0-4.382-.315-10.022-.946-16.92v-23.764l.946-18.02.94-8.093 1.098-15.34c-.825-2.527-1.504-4.1-2.038-4.716-.533-.616-2.024-4.05-4.473-10.3v-5.677l-2.628-3.321-3.319-7.534 5.947-18.462c5.722-7.444 8.839-11.166 9.35-11.166.51 0 2.7-4.158 6.57-12.473l9.46-15.342c3.358-4.614 5.977-6.92 7.856-6.92 2.819 0 20.62-8.486 20.62-8.486l10.661-6.919c5.21-9.302 7.815-14.688 7.815-16.16 0-2.208.16-10.95 1.393-13.346 1.233-2.396 3.57-6.852 3.57-8.669 0-1.817 1.532-8.445 2.48-9.945s4.347-3 5.966-3h8.811S220.066 45 224.603 45c4.538 0 10.85-2.31 21.2-2.31s31.087-2.31 37.51 0C289.735 45 304.136 45 308.81 45c4.675 0 15.296 1.197 19.368 3.595 4.072 2.398 13.082 14.2 14.62 14.2 1.024 0 3.913 1.4 8.666 4.197l21.219 14.825c6.648 5.279 10.607 7.918 11.876 7.918 1.904 0 14 9.207 14 9.207v13.872l7.152 8.485c1.075 7.4 2.191 11.1 3.348 11.1 1.158 0 3.554 4.488 7.19 13.462l4.837 8.94 2.85 8.135s2.494 6.054 2.494 7.421 4.488 7.039 4.488 7.039 3.857 4.831 3.857 6.549.984 4.189 2.248 6.72c1.265 2.532 2.846 5.853 4.105 5.853 1.258 0 3.765 5.676 3.765 5.676v6.825l1.64 8.192s2.845 9.425 4.772 10.748c1.285.883 4.56 9.038 9.823 24.467l5.708 17.708 1.861 24.096 3.99 20.645 3.909 17.4 1.963-21.992 4.506-10.935h9.494s7.872 2.986 9.774 2.986c1.901 0 3.499 5.731 3.499 7.949v10.374l-3.5 53.017-2.773 17.603-5.237 26.772-5.177 10.75-3.586 5.576-10.934 1.899Z" mask="url(#b)"/><g fill="#000" fill-rule="nonzero" mask="url(#b)"><path d="M95.56 497.275v460.5h416v-921h-416v460.5ZM294.293 51.051c4.104 1.026 12.142 2.736 17.614 3.591 11.115 1.71 24.966 8.724 24.966 12.658 0 3.763-7.353 3.078-9.918-.856-2.736-4.276-10.26-4.618-9.918-.513 0 2.053-.684 2.737-2.394 2.395-1.368-.513-8.893-.684-16.588-.513-8.72.17-14.193-.342-14.193-1.369 0-.855 3.25-1.71 7.353-1.71 5.13 0 6.498-.513 4.617-1.71-1.368-.856-3.762-1.198-5.3-.856-1.54.513-4.618-.684-7.183-2.565-2.394-1.882-6.156-3.421-8.38-3.421-3.761.17-3.761.17-.854 2.394 3.59 2.737 1.026 5.474-3.42 3.763-1.54-.684-6.84-1.54-11.97-2.052-4.96-.342-11.116-1.54-13.51-2.395-5.985-2.394-7.524-2.223-7.524.855 0 2.737-6.498 4.96-11.457 3.934-2.565-.684-2.223-1.197 1.88-3.25l4.96-2.394-4.104-1.026c-4.104-1.198-4.104-1.198-.171-1.369 2.052-.17 3.762-1.197 3.762-2.736 0-1.71 2.736-2.566 10.773-2.908 17.613-1.026 42.922 0 50.96 2.053ZM213.58 61.997c1.197 1.369 1.368 2.908.513 3.421-2.565 1.54-8.892-.855-8.892-3.42 0-3.08 5.814-3.08 8.38 0Zm62.588 4.447c.513.856-.171 1.71-1.54 1.71-1.538 0-2.735-.854-2.735-1.71 0-1.026.684-1.71 1.539-1.71 1.026 0 2.223.684 2.736 1.71Zm69.598 3.08c2.907 2.907-.684 2.565-4.788-.343-2.907-2.224-2.907-2.395-.17-2.052 1.538.17 3.932 1.368 4.958 2.394Zm-143.13 3.591c-.513 1.026-1.88 1.881-2.907 1.881-1.026 0-1.026-1.026.342-2.565 2.394-2.908 4.446-2.224 2.565.684Zm59.851 0c.514.855 0 2.224-.855 2.737-2.565 1.54-10.26-.513-10.26-2.566 0-2.223 9.747-2.223 11.115-.171Zm97.815 4.79c-.684.512.17 2.565 1.71 4.446 3.078 3.421 3.078 3.421-1.54.342-5.3-3.42-6.155-5.986-1.88-5.986 1.539 0 2.223.513 1.71 1.197Zm-90.974 3.933c1.368 2.224-2.565 2.224-5.985 0-2.053-1.368-1.882-1.71 1.197-1.71 2.052 0 4.275.684 4.788 1.71Zm84.647 7.697c18.81 9.579 42.409 27.71 48.565 37.459 11.286 18.13 16.416 29.077 17.613 36.774.513 3.42 2.907 8.723 5.13 11.802 2.394 3.078 3.762 6.67 3.25 8.039-.514 1.368.512 2.736 2.222 3.42 2.223.685 2.736 2.224 2.223 5.987-.513 3.763 0 5.131 1.71 5.131 1.369 0 3.592 2.053 4.789 4.447 2.052 3.592 2.052 4.619.17 5.645-2.564 1.71-1.367 7.013 3.079 13.854 14.022 21.723 16.758 29.59 21.546 60.72 1.54 10.263 3.591 22.236 4.446 26.512 1.026 4.276 2.907 13.684 4.446 21.038 1.71 7.526 3.42 12.658 4.275 11.802.855-.855 2.053-8.723 2.566-17.446.855-12.315 1.71-16.591 4.275-19.157 4.104-4.105 8.379-3.934 14.022.513 4.446 3.421 4.446 4.105 3.591 16.592-.855 12.999-2.394 30.787-5.814 65.167-2.907 29.42-9.063 44.642-18.127 44.642-4.446 0-4.446.342-8.379 17.104-1.368 6.158-4.275 16.25-6.669 22.578-3.42 9.578-3.933 12.828-2.736 21.38 2.052 14.881 5.13 57.813 5.13 71.838.171 23.091-9.405 42.761-36.937 74.575-12.483 14.539-44.803 41.906-53.353 45.155-3.591 1.369-6.67 4.105-7.011 6.5-.342 1.54-10.09 1.71-20.692.513-5.13-.684-7.01-4.79-2.052-4.79 1.881 0 3.933-.854 4.447-1.71.513-1.026-.171-1.71-1.54-1.71-1.539 0-2.736-.855-2.736-1.71 0-1.027 1.197-1.71 2.565-1.71 1.71 0 2.224-1.54 1.71-4.961-.341-3.934 0-4.79 1.882-4.105 1.368.513 2.394.171 2.394-.855 0-.855-1.368-2.224-2.907-2.737-2.053-.855-2.395-1.54-.855-3.079 3.078-3.079 2.565-4.789-1.369-4.789-1.88 0-3.42-.513-3.42-1.026 0-1.54 8.38-9.237 10.09-9.237.855 0 2.394-1.197 3.762-2.736 1.88-2.224 1.539-2.395-2.394-1.54-5.814 1.54-8.893-.342-6.156-3.591 1.539-1.882 1.539-2.908-.171-4.96-3.592-4.277 4.617-25.828 10.773-28.052 2.052-.855 7.866-5.473 12.996-10.262 4.96-4.79 9.576-8.724 9.918-8.724.513 0 2.394-1.881 4.104-4.105 1.71-2.223 5.13-4.618 7.354-5.13 2.394-.514 4.617-2.566 5.3-4.448.685-1.881 2.053-2.908 3.592-2.223 1.197.513 2.394 0 2.394-1.027 0-1.026-.684-1.881-1.71-1.881-3.078 0-1.881-4.276 2.052-6.842 4.104-2.908 10.773-9.92 10.773-11.63.171-2.566 4.788-9.408 9.576-13.855 2.736-2.737 4.96-5.987 4.96-7.355 0-1.369 1.538-3.934 3.42-5.645 1.88-1.71 3.42-3.934 3.42-4.789 0-1.026 1.026-3.079 2.394-4.447 3.42-3.934 11.628-19.157 10.773-20.012-.342-.513-4.104 3.079-8.208 7.868-4.104 4.618-8.208 8.552-9.235 8.552-1.197 0-3.078 2.053-4.275 4.447-2.223 4.105-2.565 4.105-4.617 1.369-2.052-2.737-2.907-2.053-2.394 1.368 0 .855-1.197 1.368-2.907 1.368s-4.275 1.882-5.472 4.276c-1.197 2.395-3.762 4.276-5.472 4.276-1.71 0-3.078 1.027-3.078 2.224 0 1.54-1.881 2.053-5.985 1.54-4.788-.514-5.985-.172-5.985 2.052 0 1.71.855 2.395 1.71 1.881 2.736-1.71 2.052 1.882-.855 4.276-2.052 1.71-2.565 1.71-2.565 0 0-1.197-1.198-1.71-2.566-1.026-1.368.513-2.565.171-2.565-.684 0-1.026 1.197-1.71 2.565-1.71 1.368 0 2.566-.856 2.566-1.71 0-1.027-.856-1.711-1.882-1.711-.855 0-1.197-.855-.684-1.71.513-1.027.171-1.711-.684-1.711-1.026 0-1.88 1.197-1.88 2.737 0 1.71-1.027 2.394-2.395 1.881-1.368-.513-4.104.855-6.156 3.079-3.249 3.42-4.446 3.763-8.721 2.223-4.104-1.368-4.788-2.394-3.933-5.644.513-2.224 0-4.447-1.197-5.131-1.368-.856-1.71-.684-.855.513.684 1.197.342 2.052-.513 2.052-1.026 0-1.881 1.027-1.881 2.395 0 4.276-2.907 4.618-11.457.855-10.603-4.618-12.484-4.96-27.874-5.302-9.405-.171-14.364-1.197-18.64-3.763-4.275-2.566-9.405-3.592-17.955-3.763-14.022-.342-21.888-2.053-20.52-4.447.684-1.026-.342-1.369-2.565-.513-1.882.513-3.592.513-3.763-.342-.513-5.132-1.71-7.697-5.985-11.631-2.736-2.566-5.13-3.763-5.472-2.737-1.026 3.25-4.446 2.053-9.234-3.763-2.907-3.25-4.788-4.447-4.788-2.908 0 1.369-1.881-.342-4.275-3.934-2.394-3.42-5.472-6.328-6.84-6.328-3.591 0-3.25-4.618.513-6.67 2.565-1.37 2.394-1.882-1.881-3.422-2.908-1.197-5.473-3.934-6.499-7.012-1.026-2.737-2.736-5.132-3.762-5.132-2.736 0-8.208-9.92-6.327-11.118 1.026-.684.513-2.907-1.026-5.302-2.565-3.934-2.565-4.447 0-7.355 3.762-4.105 3.42-5.815-.513-3.763-2.565 1.54-3.42 1.198-4.104-1.71-.684-2.566-.342-3.079 1.197-1.71 1.197 1.026 2.736 1.368 3.25.855 2.222-2.224 9.233 1.197 11.114 5.302 1.197 2.737 5.13 5.815 9.577 7.868 4.275 1.71 7.866 4.105 8.208 4.96.342.855 4.104 1.71 8.55 1.882 7.182.342 8.208.855 10.26 5.644 1.197 2.908 1.881 5.987 1.71 6.842-.342.855 3.933 5.986 9.406 11.46 9.405 9.407 14.193 12.315 14.193 8.38 0-1.025 2.565-1.71 5.814-1.71s6.498-.855 7.011-1.71c.513-1.026 5.472-1.71 10.773-1.71 8.722 0 10.26-.514 13.852-4.96 2.223-2.737 5.13-4.619 6.498-4.106 1.197.513 2.223 0 2.223-1.026s1.539-1.882 3.42-1.882c3.762 0 4.446-1.71 1.368-4.789-1.368-1.368-1.368-2.565.171-4.447 1.197-1.368 1.71-3.25 1.197-4.276-.513-.855 0-2.052 1.026-2.394 1.197-.514-5.472-.856-14.877-.685-16.417.342-21.205-.17-23.086-2.394-2.052-2.224-12.483-6.5-14.022-5.645-.855.513-3.078-.342-4.96-2.052-3.077-2.737-3.077-3.079-.341-4.96 6.327-4.105 32.148-9.237 54.721-10.605 9.918-.513 16.587 0 23.257 1.881 5.13 1.54 11.457 2.737 13.85 2.737 2.566 0 5.986.855 7.867 2.053 4.446 2.736 11.97-1.198 11.97-6.329 0-1.881.855-4.447 2.052-5.644 1.197-1.198 1.368-2.053.513-2.053-1.026 0-5.13-3.079-9.405-6.842-5.814-5.13-7.866-6.157-8.892-4.447-.855 1.369-2.907 2.053-4.788 1.54-2.223-.685-4.446.17-5.814 2.052-1.881 2.566-2.907 2.566-9.235.855-5.472-1.71-8.037-1.71-11.799-.17-5.3 2.052-15.22 1.539-20.52-1.198-1.71-.855-6.84-1.197-11.458-.855-5.643.513-8.72 0-9.747-1.369-1.71-2.736-23.77-2.565-25.48.171-1.88 3.08-12.996 4.106-14.193 1.369-.513-1.368-.342-3.25.171-4.105 1.881-2.395 12.313-5.645 15.049-4.618 1.368.513 2.394 0 2.394-1.198 0-1.197 1.71-3.592 3.59-5.302 2.908-2.395 5.302-2.908 11.63-2.052 4.274.513 8.207 1.71 8.378 2.565 1.197 2.908 10.09 1.197 13.68-2.565 3.763-3.934 4.105-13.513.685-16.934-.855-.855-1.197-5.131-.684-9.407.684-7.697.684-7.868-3.762-7.013-3.42.684-4.447.342-4.105-1.71.513-2.737 6.499-4.618 6.499-2.053 0 .855 2.736 2.053 5.985 2.737 5.3.855 5.643 1.368 4.104 4.447-2.052 3.763-2.052 3.592 2.736 6.158 2.394 1.197 4.446 1.197 7.866-.514 5.13-2.736 6.327-5.986 4.96-14.367-1.54-10.434-14.707-15.223-34.202-12.486-7.524 1.026-11.628.513-21.375-2.566-6.498-2.223-12.312-3.934-12.996-3.934-.513 0-2.394 2.737-4.276 6.158-1.71 3.42-5.3 7.183-8.037 8.552-4.617 2.394-4.617 2.736-4.275 16.933.342 8.039 1.026 14.539 1.71 14.539.513 0 1.54 2.223 2.223 5.13.684 2.738 1.881 5.132 2.736 5.132 1.026 0 1.368.684.684 1.54-.513.855-.17 2.052.855 2.736 2.736 1.71 1.881 4.79-1.026 3.592-1.71-.684-3.762.171-5.13 1.882-2.223 2.907-2.223 2.907-2.394-.171 0-2.224-.855-2.737-2.907-1.882-1.71.684-4.275 1.368-5.643 1.54-1.368 0-3.591 1.539-4.788 3.25-1.197 1.539-3.078 2.565-3.933 2.052-.855-.684-1.54-.342-1.54.684s-2.051 2.908-4.445 4.105c-2.907 1.54-3.933 2.908-2.565 3.592 1.026.684 1.88.342 1.88-.513a1.9 1.9 0 0 1 1.882-1.882c1.368 0 1.197.856-.171 2.566-1.197 1.54-3.25 2.395-4.617 1.881-2.736-1.197-2.907 2.737-.171 5.474 1.026 1.026 1.539 2.565.855 3.079-.684.684-2.565-.514-4.105-2.566l-3.078-3.763-4.959 4.105c-3.42 2.908-4.104 4.447-2.565 4.96 1.368.513 1.881 1.54 1.026 2.395-.684.684-2.394-.342-3.933-2.395-1.368-2.052-3.249-3.42-4.104-2.907-.855.513-1.881.17-2.565-.685-.513-1.026-2.052-1.368-3.42-.684-1.368.513-2.565.342-2.565-.17 0-.685 2.223-2.053 4.959-2.909 3.591-1.197 4.96-2.907 4.96-5.986 0-2.224-.685-4.105-1.54-4.105s-1.539.684-1.539 1.54c0 1.88-6.498 3.591-9.405 2.565-1.197-.513-2.565-2.395-3.078-4.447-.684-2.566-1.881-3.079-4.446-2.224-2.052.684-3.591.342-3.591-.684s.855-1.881 1.88-1.881c1.369 0 1.198-.856-.17-2.566-1.197-1.54-3.42-2.224-4.788-1.71-1.369.513-3.763-.171-5.302-1.369-1.539-1.368-5.472-3.42-8.72-4.618-3.25-1.368-7.012-3.763-8.209-5.473-3.078-4.105-7.182-3.934-7.182.342 0 1.881-.684 3.42-1.368 3.42-2.394 0-5.301-22.92-3.078-24.458 1.197-.856.513-1.198-1.54-.856-2.564.342-3.59-.513-3.932-3.763-.684-5.302-5.302-25.656-6.67-29.077-.684-1.368-1.197-3.079-1.368-3.934-.342-.684-.513-1.368-.855-1.71-1.026-1.198-.855-8.04.171-8.04.855 0 .684-2.052-.342-4.618-1.197-3.25-1.026-5.986.342-9.407 1.197-3.079 1.368-6.157.342-9.407-2.394-6.842-2.736-22.236-.513-23.604.855-.513 1.71-2.566 1.71-4.447 0-1.71.684-3.25 1.54-3.25 2.565 0 5.3 15.907 3.762 22.407-1.71 7.354-.684 8.894 11.799 18.13 7.353 5.473 10.431 6.842 14.535 6.158 3.591-.514 6.327.342 9.234 2.736 2.223 2.053 5.473 3.592 7.183 3.592 7.353 0 27.018-5.815 35.226-10.433 10.774-5.987 24.283-15.565 24.283-17.447.342-2.736-10.09-.855-15.732 2.908-6.157 4.276-13.168 7.184-13.168 5.473 0-.513 2.052-2.052 4.788-3.592 4.617-2.736 4.617-2.736.342-1.881-15.219 2.908-17.613 3.079-16.587 1.54.684-1.027 4.104-2.395 7.524-3.08 10.26-1.88 15.904-5.473 15.904-10.262 0-2.737 1.026-4.276 2.565-4.276 1.368 0 2.565.684 2.565 1.54 0 4.275 5.13 6.67 11.457 5.13 4.959-1.026 7.524-.684 10.431 1.198 4.96 3.25 7.011 1.71 13.851-10.263 3.42-6.157 5.302-12.315 5.986-20.354 1.026-10.262.684-12.315-2.565-17.104-4.96-7.013-9.406-11.46-11.8-11.46-.855 0-1.71-.684-1.71-1.54 0-1.026-2.907-1.539-6.327-1.197-3.591.342-7.695-.513-9.063-1.71-3.25-2.737-22.744-3.25-30.268-1.026-2.907 1.026-5.814 1.368-6.156.855-1.197-1.197-22.06 6.67-24.796 9.236-1.197 1.198-3.762 2.224-5.643 2.224-1.71 0-3.249.684-3.249 1.54 0 3.249-25.821 27.366-28.386 26.34-1.368-.513-3.591.17-5.13 1.368-2.224 1.71-2.908 1.71-4.276-.342-2.565-3.592-.684-21.551 2.565-24.63 2.908-2.908 3.934-8.552 1.197-7.013-.855.513-1.539-1.54-1.539-4.79 0-3.591 1.026-6.328 2.565-6.84 1.369-.514 1.882-.172 1.369.683-.684 1.027-.684 4.79 0 8.21.855 5.474 1.71 6.5 5.13 6.329 5.3 0 6.156-1.026 7.01-9.236.685-4.96.172-7.355-1.538-8.04-1.54-.512-2.223-3.591-2.223-8.894.17-4.447-1.71-13.683-3.933-20.525-4.104-12.144-4.275-12.315-6.157-7.697-1.197 2.566-2.565 7.697-3.249 11.118-.855 4.618-1.88 6.158-3.59 5.302-1.369-.513-2.566-2.223-2.566-3.934 0-1.71-1.197-3.591-2.565-4.105-2.052-.684-2.223-1.71-1.026-4.276 1.026-1.71 1.368-3.591.855-4.105-.513-.513.855-2.223 3.25-3.763 3.932-2.565 8.55-11.802 12.996-26.511 2.736-8.723 20.178-29.077 24.966-29.077.513 0 5.13-1.882 9.918-4.106 11.629-5.302 20.008-7.868 27.019-8.552 12.996-1.197 42.922-7.526 44.29-9.236.513-.684 4.275-1.54 8.55-1.71 4.275-.343 8.892-1.71 10.26-2.908 3.42-2.737 11.629-4.96 17.785-4.447 3.078.342 4.446-.171 3.762-1.369-.855-1.197-.171-1.368 1.539-.855 1.368.684 6.327.171 10.773-1.026 10.09-2.737 33.004-4.618 43.093-3.592 4.275.342 11.116 2.395 15.39 4.447Zm35.055 11.118c.513.855.171 1.71-.684 1.71-1.026 0-1.88-.855-1.88-1.71 0-1.026.341-1.71.683-1.71.513 0 1.368.684 1.881 1.71ZM130.471 208.58c.684 2.566.171 3.25-1.88 2.908-3.592-.684-4.96-6.5-1.54-6.5 1.368 0 2.907 1.54 3.42 3.592Zm88.41 42.59c5.472 2.736 10.26 7.012 10.26 8.894 0 .684-4.788 1.368-10.603 1.368-5.985 0-15.732 1.198-21.717 2.566-6.156 1.54-11.457 2.052-11.97 1.368-.513-.684-3.25-1.54-6.156-1.881-7.867-.855-10.26-4.105-6.499-8.552 5.815-6.842 10.774-8.21 27.19-7.013 8.55.513 17.271 2.052 19.494 3.25Zm1.368 14.71c8.892 2.394 2.907 5.644-14.194 7.696-6.498.684-14.535 1.882-17.784 2.566-8.38 1.71-5.472-2.053 5.643-7.184 8.55-3.934 18.468-5.131 26.335-3.079Zm-3.079 13.34c0 .514-.684 1.369-1.71 1.882-.855.513-1.71.171-1.71-.684 0-1.026.855-1.881 1.71-1.881 1.026 0 1.71.342 1.71.684Zm-12.825 24.973c-4.617 2.052-7.353 2.052-4.275 0 1.368-.855 3.762-1.54 5.13-1.54 1.71 0 1.368.514-.855 1.54Zm-98.327 48.747c0 1.368-1.197 2.566-2.565 2.566-2.736 0-3.42-2.053-1.368-3.934 1.88-2.053 3.933-1.369 3.933 1.368Zm141.591 54.22c3.42 3.422 2.394 5.645-2.907 5.987-4.617.342-4.788.171-2.907-3.763 2.223-4.789 2.907-5.131 5.814-2.223Zm-126.2 14.368c0 5.132-2.737 5.303-4.105.171-1.88-6.841-1.368-8.723 1.54-6.328 1.367 1.197 2.564 3.934 2.564 6.157Zm116.282-5.473c0 .342-1.197 1.197-2.736 1.71-1.368.514-2.052.342-1.54-.684 1.027-1.71 4.276-2.394 4.276-1.026ZM479.66 562.64c1.71 2.394.172 3.592-3.249 2.223-1.539-.513-2.223-1.71-1.71-2.565 1.197-2.053 3.591-1.882 4.96.342Zm5.473 17.104c2.565 4.96 2.907 16.249.513 17.788-1.026.514-2.394-.855-3.25-3.078-1.025-2.395-2.735-4.619-3.933-5.132-1.197-.513-.513-1.026 1.71-1.026 5.302-.17 4.96-6.157-.854-9.92-3.25-2.224-4.789-2.395-5.302-.856-.684 2.395-5.472 2.737-5.472.342 0-2.736 5.472-4.789 10.09-3.591 2.394.684 5.472 3.078 6.498 5.473Zm-12.484 10.605c-1.197 3.42-5.814 3.934-5.814.684s3.762-6.67 5.472-4.96c.855.855 1.026 2.736.342 4.276Zm19.837 7.183c0 1.369-.342 2.566-.684 2.566s-1.026-1.197-1.71-2.566c-.513-1.368-.171-2.565.684-2.565 1.026 0 1.71 1.197 1.71 2.565Zm-18.81 3.08c0 3.249-3.592 6.328-7.183 6.328-3.59 0-4.104-3.421-1.026-6.5 2.736-2.737 8.208-2.565 8.208.171Zm9.234 4.788c2.736 2.053 5.643 3.08 7.695 2.395 3.762-1.197 6.156 3.25 3.762 7.184-1.026 1.881-1.71 2.052-2.736.684-.855-1.54-1.71-1.54-3.591 0-1.881 1.54-2.394 1.197-2.394-1.882 0-2.565-.855-3.42-2.565-2.907-1.54.684-3.25-.855-4.96-3.934-2.907-5.987-1.539-6.5 4.789-1.54Zm-9.748 10.776c4.788 5.816 11.287 8.21 15.562 5.645 3.249-2.053 5.472.17 5.472 5.644 0 5.986-3.25 8.381-6.156 4.447-1.881-2.737-2.223-2.737-3.762-.171-2.394 4.276-8.893-.171-8.893-6.158 0-4.447-.684-4.789-9.234-3.42-1.539.17-.684 7.525 1.368 12.315 1.026 2.394.171 2.736-6.498 2.223-4.275-.17-8.55-.855-9.576-1.54-2.565-1.539.855-7.183 6.498-10.09 2.565-1.54 3.591-2.566 2.565-2.737-3.591 0-2.565-6.5 1.54-9.237 5.13-3.763 5.471-3.592 11.114 3.08ZM184.68 626.781c0 1.54-.855 2.394-2.052 2.052-3.078-1.026-3.591-4.789-.684-4.789a2.701 2.701 0 0 1 2.736 2.737Zm8.379 13.341c1.539 1.882 1.026 2.566-2.394 3.421-5.13 1.368-7.695.171-7.695-3.42 0-3.08 7.524-3.25 10.089 0Zm286.26 1.71c.856 1.198 1.882.856 3.079-1.197 3.762-6.5 8.72-2.223 7.182 6.158-1.197 6.157-3.591 7.355-6.498 3.592-2.223-3.08-2.394-3.08-5.815 0-4.788 4.447-8.72 2.394-8.72-4.618 0-3.25.512-6.158 1.025-6.671 1.368-1.369 8.208.513 9.748 2.737Zm-19.323 4.448c0 3.42-1.368 5.986-4.275 7.868-3.25 2.223-4.275 4.276-4.275 9.236 0 3.763-1.197 7.355-2.736 8.552-1.881 1.71-2.394 3.934-1.54 8.723.856 5.303.514 6.67-2.564 8.894-2.052 1.54-3.25 3.421-2.565 4.448 2.223 3.763-1.881 1.71-4.788-2.566-4.618-6.158-5.644-15.052-2.224-19.67 1.54-2.224 2.737-5.302 2.737-6.842s1.539-4.789 3.42-7.183c1.88-2.395 3.42-6.33 3.42-8.724 0-4.96 3.933-7.697 10.773-7.868 3.933 0 4.617.685 4.617 5.132Zm-260.952 8.894c3.078 4.276 2.223 5.644-4.446 7.184-4.104.855-4.788.513-5.814-3.421-1.881-7.526 5.814-10.263 10.26-3.763Zm267.792 5.473c0 5.645-3.42 10.605-5.643 8.381-1.71-1.539-1.539-4.618.513-9.75 2.394-6.328 5.13-5.472 5.13 1.37Zm15.049 1.369c.684 7.868-3.934 12.486-6.328 6.328-.684-2.223-1.197-5.131-.855-6.328 2.052-6.5 2.565-7.355 4.618-6.842 1.026.513 2.223 3.42 2.565 6.842ZM207.252 672.79c2.223 4.96 1.026 6.842-5.814 8.552-3.933 1.027-4.788.514-5.814-3.25-2.223-8.894 7.866-13.512 11.628-5.302Zm13.68.342c4.96 5.987 5.473 8.04.856 4.619-4.618-3.421-7.354-7.526-4.789-7.526.684 0 2.566 1.368 3.934 2.907Zm235.986 1.882c1.026 3.763-1.368 10.605-3.762 10.605-.855 0-1.71-3.08-1.71-6.842 0-7.184 3.933-9.92 5.472-3.763Zm16.758 1.881c0 6.671-1.539 10.434-4.275 10.434-3.42 0-4.617-5.816-2.394-10.947 2.736-5.986 6.67-5.815 6.67.513ZM488.041 681c-.513 1.54-1.71 2.908-2.394 2.908-1.71 0-3.591-7.013-2.223-9.065 1.539-2.566 5.814 3.079 4.617 6.157Zm-254.967 7.526c3.59 3.421 6.327 6.67 6.327 7.355 0 1.882-11.115.171-11.628-1.71-.342-1.027-1.54-1.71-2.736-1.71-1.54 0-2.565-7.356-1.197-9.921.684-1.54 3.762.513 9.234 5.986Zm-18.81.342c.341 1.882.17 5.987-.514 9.066-.684 3.078-1.368 4.276-1.539 2.565-.17-2.223-1.026-2.908-3.42-2.052-2.394.684-3.42-.171-4.275-3.592-1.368-5.131 1.368-9.236 5.814-9.236 1.71 0 3.42 1.539 3.933 3.25Zm249.152 3.934c0 3.08-1.197 7.013-2.565 8.895-2.736 3.591-7.695 2.565-7.695-1.54 0-3.592-2.907-3.25-3.933.342-.513 1.71-.855 0-1.026-3.763 0-5.986.17-6.5 2.223-3.763 2.223 2.737 2.565 2.737 5.13-1.368 4.104-6.158 7.866-5.644 7.866 1.197Zm13.68 0c0 3.25-3.078 7.355-4.275 6.158-1.539-1.54.684-8.21 2.736-8.21.855 0 1.54 1.026 1.54 2.052Zm8.55 3.934c0 1.369-.683 2.908-1.71 3.421-1.025.684-1.71-.855-1.71-3.42 0-2.566.685-4.106 1.71-3.422 1.027.514 1.71 2.053 1.71 3.421Zm-133.382-.17c0 1.88-3.25 2.565-4.276 1.025-.513-.855.171-1.71 1.54-1.71 1.539 0 2.736.342 2.736.684Zm67.546 6.157c.855 3.25 0 5.302-3.249 8.552-2.565 2.223-4.446 5.473-4.446 7.184 0 3.763-3.078 4.105-4.446.513-.513-1.368 1.368-5.474 4.446-9.408 3.933-4.96 5.13-7.696 4.275-10.604-.855-2.737-.684-3.421.513-2.224 1.026.856 2.223 3.592 2.907 5.987Zm-68.23.342c1.368 1.54-5.815 3.42-7.867 2.223-3.249-2.052-1.71-4.105 2.565-3.591 2.394.17 4.789.855 5.302 1.368Zm-105.51 5.473c2.052 3.079 3.591 7.013 3.591 8.723 0 2.908-.17 2.908-3.59-.17-4.105-3.764-7.183-10.434-5.644-12.829 1.368-2.394 1.881-2.052 5.643 4.276Zm222.134 1.882c-.684 2.907 0 4.96 1.71 5.815 2.394 1.369 2.394 2.053-.17 5.987-4.105 6.328-5.644 5.644-6.84-3.25-1.369-8.894-.172-12.828 3.42-12.828 1.88 0 2.393 1.197 1.88 4.276Zm-255.65.855c-.514 1.881-1.198 3.42-1.54 3.42-.342 0-.684-1.539-.684-3.42 0-1.882.684-3.42 1.54-3.42.854 0 1.196 1.538.683 3.42Zm210.505 3.079c-.513 1.54-2.394 4.789-4.104 7.183l-3.42 4.277v-4.96c0-5.132 4.446-11.803 6.84-10.434.855.513 1.026 2.223.684 3.934Zm24.454-2.737c1.88 3.25 2.223 6.67.342 5.473-1.026-.513-2.907 0-4.275 1.198-3.591 2.907-4.617 1.026-2.223-4.276 2.223-4.96 4.104-5.645 6.156-2.395ZM249.66 726.67c3.933 7.697 4.275 10.262 1.197 10.262-2.907 0-6.84-6.67-7.524-13.341-.855-7.184 1.71-5.986 6.327 3.079Zm-35.91 1.026c0 1.368-.685 2.395-1.71 2.395-.856 0-1.71-.685-1.71-1.54s-.514-3.079-1.198-4.789c-1.026-2.737-.855-2.737 1.71-.684 1.54 1.197 2.907 3.42 2.907 4.618Zm244.022-3.42c1.368 3.591-2.223 10.946-5.301 10.946-4.104 0-4.788-2.908-1.881-8.552 2.907-5.645 5.472-6.5 7.182-2.395Zm-47.368 2.223c-1.71 3.592-5.13 6.328-5.13 4.447 0-2.395 3.59-7.697 5.3-7.697 1.027 0 1.027 1.197-.17 3.25Zm-221.621 3.934c3.078 4.276 3.249 3.934-2.736 5.473-3.591.855-4.788.342-5.643-2.566-.855-2.394-.342-4.276 1.026-5.13 3.59-2.224 4.446-1.882 7.353 2.223Zm100.55-1.198c12.312 3.592 30.439 17.96 30.439 23.946 0 .514-.684.685-1.54.171-2.906-1.881-3.761 4.619-1.025 7.526 1.539 1.71 2.907 4.619 3.078 6.671.17 1.881.684 3.592 1.197 3.592s2.394 1.197 4.104 2.566c3.249 2.394 3.249 2.565.171 5.986-3.762 4.276-7.011 4.447-9.234.342-1.881-3.42-15.22-10.605-19.666-10.605-4.275 0-9.576-3.25-9.576-5.644 0-1.197-1.71-2.908-3.762-3.763-2.052-1.026-4.96-4.105-6.498-6.842-1.54-2.907-3.933-5.13-5.301-5.302-4.96-.342-8.721-2.908-10.26-7.184-2.566-6.5-.343-6.67 6.156-.342 5.985 5.816 8.037 5.474 3.42-.684-3.591-4.79-3.25-5.815 3.078-9.578 6.498-4.105 5.3-3.934 15.22-.856Zm146.722 5.132c-1.198 1.54-2.566 2.223-2.908 1.881-1.197-1.197 1.197-4.447 3.25-4.447 1.026 0 1.026 1.026-.342 2.566Zm32.49 2.394c0 3.421-3.249 7.013-6.327 7.013s-2.736-3.592.513-8.21c2.907-4.105 5.814-3.592 5.814 1.197Zm-19.323 4.618c1.539 4.105-2.394 10.947-6.327 10.947-2.736 0-3.42 1.198-3.42 6.158 0 3.25-1.026 7.184-2.394 8.38-3.25 3.25-8.722-.854-11.287-8.551-1.71-4.96-1.539-6.5 1.197-10.092 2.052-2.908 4.104-3.934 6.156-3.42 2.052.683 4.105-.343 5.644-2.566 3.078-4.276 8.892-4.79 10.43-.856Zm-43.948 3.08c0 1.368-2.052 4.788-4.446 7.354l-4.446 4.79 1.026-5.987c1.026-5.303 3.42-8.381 6.669-8.552.684 0 1.197 1.026 1.197 2.394Zm-211.361 3.762c1.539 4.105 1.197 5.303-1.71 6.5-7.011 2.736-12.483-3.763-6.156-7.355 4.275-2.566 6.669-2.224 7.866.855Zm75.755 6.158c-.513 1.368-1.026.855-1.026-1.027-.171-1.881.342-2.907.855-2.223.513.513.684 2.052.17 3.25Zm195.628-1.71c-.17.855-.17 2.907-.17 4.788 0 3.763-8.038 8.04-10.432 5.645-1.881-1.882 5.472-12.657 8.38-12.144 1.196.342 2.222 1.026 2.222 1.71Zm-268.989 16.59c-.342 3.592-1.54 4.619-5.985 4.96-5.301.514-5.643.172-5.643-4.617 0-5.303 2.907-7.013 9.063-5.645 2.223.513 2.907 2.053 2.565 5.302Zm171.517-2.907c-1.368 3.934-8.721 6.5-8.721 3.25 0-1.027 1.539-1.882 3.249-1.882 1.71 0 3.59-1.197 4.275-2.566.513-1.368 1.368-2.565 1.71-2.565.513 0 .342 1.71-.513 3.763Zm-68.06 7.697c2.223 1.197-.513 3.934-3.933 3.934-1.88 0-4.104-1.54-5.13-3.421-1.71-3.25-1.539-3.421 2.907-2.395 2.565.684 5.301 1.54 6.156 1.882Zm102.09 1.026c0 2.395-7.866 7.526-9.406 6.157-.342-.513.343-2.565 1.882-4.618 2.907-4.105 7.524-5.131 7.524-1.54Zm29.583.171c1.026 2.737-.342 4.79-2.394 3.42-2.052-1.196-1.88-5.815 0-5.815.855 0 1.881 1.027 2.394 2.395Zm29.926 3.079c-.513 4.96-1.197 5.644-5.985 6.157-4.617.513-5.643 0-5.643-2.907 0-4.277 4.446-8.724 8.721-8.724 2.907 0 3.42 1.027 2.907 5.474Zm-42.409-2.053c0 .855-.684 1.71-1.539 1.71-1.026 0-2.223-.855-2.736-1.71-.513-1.026.171-1.71 1.539-1.71 1.54 0 2.736.684 2.736 1.71Zm-38.305 5.303c.513 3.934-1.197 5.986-6.498 7.183-5.985 1.54-7.353-1.026-3.762-6.5 3.25-4.96 9.576-5.302 10.26-.683Zm-182.803 3.591c.855 1.198 1.539 4.105 1.539 6.5-.171 3.592-1.026 4.276-5.301 4.276-4.446 0-5.13-.684-5.643-5.473-.513-5.132.342-5.987 6.669-7.184.684 0 1.881.855 2.736 1.881Zm240.945 2.566c-1.71 1.71-3.25-.855-1.71-3.079 1.026-1.881 1.368-1.881 2.052 0 .342 1.198.17 2.566-.342 3.08Zm-216.15 2.908c2.566 3.763 1.369 6.157-3.42 6.157-5.472 0-8.892-2.736-8.892-7.354 0-2.737.855-3.08 5.643-2.053 2.907.684 5.986 2.224 6.67 3.25Zm198.707.17c1.54 6.33-1.71 11.632-6.327 10.434-2.052-.513-4.788-1.026-5.814-1.026-1.197 0-2.223-1.881-2.223-4.105 0-9.065 12.312-13.512 14.364-5.302Zm-24.624 3.764c0 4.276-5.13 9.065-9.748 9.065-4.959 0-4.959-1.71.342-7.526 4.617-4.96 9.406-5.815 9.406-1.54Zm58.14 1.881c0 .684-1.025 3.421-2.051 5.987-2.223 4.447-5.814 5.473-5.472 1.54.17-1.198.342-3.593.513-5.474 0-2.224 1.368-3.421 3.59-3.421 1.882 0 3.42.684 3.42 1.368Zm-182.631 4.96c5.13 4.619 3.933 8.382-2.736 8.553-5.814.17-7.696-2.224-7.867-9.408 0-3.078 6.84-2.565 10.603.856Zm44.29-1.197c4.104 2.224 4.275 6.842.17 6.842-3.59 0-10.601-4.618-10.601-7.013 0-2.052 6.156-2.052 10.43.171Zm120.9 3.763c-.513 4.79-1.197 5.816-5.473 6.158-6.156.684-8.55-1.71-7.182-7.184.855-3.763 2.052-4.447 7.182-4.447 5.815 0 5.986.17 5.473 5.473Zm-88.58-2.565c-.172.855-1.198 3.25-2.395 5.473-1.88 3.592-1.88 5.131 0 9.75 3.25 7.696 3.079 10.262-1.026 14.367-4.446 4.447-11.115 4.276-15.732-.342-2.223-2.224-4.617-3.934-5.643-4.105-.855 0-2.736-.342-3.762-.342-1.197-.171-2.223-2.566-2.223-5.303 0-5.13 3.249-7.697 7.695-5.986 1.368.684 2.565.17 2.565-.855 0-1.027 4.104-4.447 8.892-7.868 9.063-5.987 11.628-7.013 11.628-4.79Zm23.598 3.933c-.513 3.592-1.539 4.277-6.84 4.79-6.84.513-7.866-.856-4.788-6.5 1.197-2.223 3.42-3.25 7.01-2.908 4.276.342 4.96 1.027 4.618 4.619Zm40.528-.342c.171.685 1.026 2.908 2.223 5.132 3.078 5.473 1.881 10.946-2.565 13.341-2.223 1.026-3.42 2.395-2.736 2.908.513.684-.171 1.197-1.71 1.197-1.71 0-2.394-.855-1.881-2.566.684-1.539 0-2.565-1.71-2.565-1.881 0-2.736-1.54-2.736-4.79 0-5.473 1.368-7.696 5.985-10.262 2.394-1.368 2.736-2.053.855-2.053-2.223 0-2.223-.17 0-1.71 2.394-1.54 4.275-.855 4.275 1.368Zm-190.84.514c4.275 1.539 5.3 2.736 5.3 6.67 0 5.987-1.025 6.67-8.208 5.645-5.643-.856-8.72-6.158-6.498-11.631 1.026-3.08 2.223-3.08 9.406-.684Zm74.215 3.078c.513 2.395-.17 3.592-2.736 4.276-1.88.514-4.104.514-4.959 0-2.223-1.539-1.539-4.105 1.197-4.105 1.368 0 2.394-.513 2.394-1.368-.855-4.96 2.736-4.105 4.104 1.197Zm-95.42 2.566c0 6.5-2.907 7.355-5.472 1.71-2.394-5.302-1.368-8.039 2.565-7.183 1.881.342 2.907 2.223 2.907 5.473Zm50.104-.513c.513 3.934-.17 4.618-4.617 5.302-6.156.855-8.721-1.197-8.721-6.842 0-3.591.684-3.934 6.498-3.42 5.472.513 6.327 1.197 6.84 4.96Zm140.223 6.157c.684 4.79-3.933 9.066-10.089 9.066-5.643 0-5.643.17-3.249-5.987 1.54-4.105 7.524-8.039 11.115-7.013 1.026.171 1.881 2.053 2.223 3.934Zm-113.375 9.92c0 4.619-.513 5.132-6.327 5.645-6.156.513-6.498.342-6.498-4.447 0-6.328 1.197-7.526 7.695-6.842 4.446.514 5.13 1.198 5.13 5.645Zm24.453-4.275c1.026 0 2.052 1.881 2.052 4.276 0 3.763-.684 4.276-5.985 4.276-5.643 0-5.985-.342-5.985-5.302 0-4.79.513-5.303 3.933-4.276 2.052.513 4.788 1.026 5.985 1.026Zm65.153-.171c3.249 2.052-.342 8.38-6.156 10.604-2.736 1.027-3.933 2.395-3.25 4.105.514 1.369.343 2.566-.512 2.566-2.394 0-3.933-11.63-1.881-15.394 1.88-3.592 7.695-4.447 11.799-1.881Zm68.573-.855c0 .513-.685 2.736-1.71 5.13-1.198 3.422-2.737 4.448-6.84 4.448-4.618 0-5.13-.513-5.13-5.131 0-4.79.341-5.132 6.84-5.132 3.761 0 6.84.342 6.84.685Zm-181.607 8.21c.684 5.13-4.104 8.723-10.26 7.868-2.736-.343-3.762-1.882-3.933-5.303-.171-5.473 2.223-7.355 9.063-7.184 3.762 0 4.788.856 5.13 4.619Zm-27.36-1.71c1.197 1.196 2.052 3.933 2.052 6.157 0 3.592-.684 3.934-7.182 3.42-7.525-.513-9.748-3.42-7.525-9.236 1.197-2.907 9.748-3.25 12.655-.342Zm182.119 5.301c3.762 2.566 4.446 3.763 3.591 7.697-1.71 6.842-1.71 6.842-8.38 4.79-4.445-1.369-5.984-2.737-5.984-5.645 0-4.789 3.762-13 4.959-11.289.513.856 3.078 2.737 5.814 4.447Zm-205.718-2.223c0 .855-.684 1.71-1.71 1.71-.855 0-1.71-.855-1.71-1.71 0-1.026.855-1.71 1.71-1.71 1.026 0 1.71.684 1.71 1.71Zm184.171 6.157c1.54 4.277-2.223 10.434-7.182 11.631-5.814 1.54-6.327 1.027-4.959-5.644.684-3.42 2.565-6.158 4.788-7.013 5.13-2.223 6.156-2.052 7.353 1.026Zm-65.323 7.697c0 5.303-.513 5.816-5.13 5.816s-5.13-.513-4.788-4.96c.684-8.381 1.71-9.75 5.985-8.04 3.078 1.027 3.933 2.737 3.933 7.184Zm14.022-6.328c-.684 1.54.342 2.908 2.394 3.592 4.104 1.368 4.617 10.262.513 11.802-5.3 2.052-7.524 1.026-8.892-4.618-1.026-4.106-.855-6.5 1.197-9.237 3.078-4.276 6.156-5.302 4.788-1.54Zm-59.338 9.407c0 3.592-1.026 5.131-3.762 5.987-6.84 1.71-8.208 1.197-8.208-3.763 0-3.763 1.026-5.303 4.788-6.5 5.985-2.394 7.182-1.54 7.182 4.276Zm25.308-.342c-.342 3.934-1.368 4.96-5.985 5.302-5.3.514-5.643.171-5.643-4.618 0-4.96.513-5.302 6.156-5.302s5.985.342 5.472 4.618Zm63.956 1.368c-.342 2.737-1.197 5.816-2.052 6.671-2.565 2.566-9.747-.342-10.773-4.447-1.368-5.302 1.88-8.552 8.037-7.868 4.788.513 5.3 1.026 4.788 5.644Zm62.93-.855c-2.053 2.737-4.789 5.131-6.157 5.131-1.539 0-2.394-1.881-2.394-5.13 0-4.79.513-5.132 6.156-5.132h5.985l-3.59 5.131Zm-200.417 6.67c-.513 3.935-1.368 4.448-7.524 4.961-7.183.513-7.183.513-6.67-5.131.342-4.79 1.197-5.816 5.302-6.67 6.327-1.198 9.576 1.196 8.892 6.84Zm24.624-6.328c.513 1.198.342 4.105-.342 6.5-.855 3.592-2.052 4.276-6.84 4.276-5.472 0-5.985-.342-5.985-5.131 0-5.132.684-5.474 11.286-7.526.684 0 1.54.855 1.881 1.881Zm153.733 8.21c2.052 1.198 2.907 3.08 2.565 5.645-.513 2.052-.855 4.447-.855 5.131-.171.684-2.223 1.026-4.788.513-2.736-.342-5.301-.855-5.985-.855-1.71-.171-1.71-9.407-.171-10.947 1.539-1.71 5.3-1.54 9.234.513Zm-21.376 7.526c.171 3.421-1.026 5.303-4.446 7.013-5.13 2.737-6.84 1.881-6.84-2.908 0-3.763 6.327-10.433 9.063-9.407 1.197.342 2.052 2.737 2.223 5.302Zm-67.033-1.881c6.498 4.789-1.197 15.736-9.747 13.512-2.394-.684-2.907-1.881-1.881-6.157 1.88-9.237 5.643-11.631 11.628-7.355Zm-43.435 11.63c-1.197 2.053-3.591 3.25-6.84 3.25-4.275 0-5.13-.684-5.13-4.105 0-4.447 2.565-7.183 7.695-8.21 4.275-.855 6.669 4.448 4.275 9.066Zm64.64-8.723c1.196 0 2.051 2.395 2.051 5.987 0 3.25-.684 5.986-1.539 5.986-.855 0-2.736.514-4.104 1.027-4.104 1.54-7.524-3.592-6.669-9.579.684-4.618 1.368-5.302 4.446-4.447 1.881.513 4.617 1.026 5.814 1.026Zm-44.462 1.027c2.565.684 3.762 2.394 3.762 5.302 0 3.592-.684 4.105-4.617 3.592-3.762-.342-4.959-1.54-5.3-5.302-.685-4.96 0-5.132 6.155-3.592Zm71.138 3.42c1.368 5.474-.684 8.382-6.498 8.895-4.96.342-7.011-2.053-7.011-8.723 0-4.105.513-4.619 6.156-4.619 5.3 0 6.498.685 7.353 4.448Zm-138.171 3.25c.684 1.369.513 3.934-.171 5.474-1.026 2.908-1.197 2.908-3.591-.171-1.368-1.882-2.394-4.447-2.394-5.645 0-3.078 4.959-2.736 6.156.342Zm24.282 3.592c.513 4.447-.17 5.645-3.762 6.5-6.156 1.54-9.576-.342-9.576-5.644 0-6.158 1.368-7.355 7.695-6.671 4.446.513 5.13 1.368 5.643 5.815Zm150.484 2.053c1.539 1.026 1.197 2.394-1.368 5.131-2.052 2.053-4.275 3.763-5.13 3.763-2.565 0-2.052-8.21.513-9.065 3.078-1.369 3.59-1.369 5.985.17Zm-22.915 15.223c-2.565 1.881-3.249 1.881-4.446 0-1.88-3.421.342-9.408 3.591-10.092 4.104-.855 4.788 7.184.855 10.092Zm-105.338-.171c-.342 4.276-1.368 4.96-5.985 5.473-4.446.513-5.643 0-5.643-2.566 0-3.934 1.71-6.328 5.985-8.723 4.446-2.394 6.327-.342 5.643 5.816Zm43.093-1.882c0 9.75-12.313 13-13.339 3.592-.855-7.526.684-9.578 7.354-9.578 5.643 0 5.985.342 5.985 5.986Zm21.888-2.566c1.54 0 2.052 1.882 1.71 5.474-.513 5.131-1.026 5.644-6.84 6.157-6.327.514-6.498.342-6.498-5.302 0-6.842 1.368-8.552 5.985-7.355 1.881.513 4.446 1.026 5.643 1.026Zm26.335 3.592c-.684 6.842-1.71 8.381-6.156 8.381-4.96 0-7.695-3.762-6.498-9.407.513-3.42 1.539-3.934 7.01-3.592 5.473.342 6.157.855 5.644 4.618Zm-72.848-1.197c3.42 3.421 3.078 8.552-.342 7.184-1.539-.513-3.078-1.026-3.42-1.026-.342 0-.684-1.882-.684-4.276 0-4.96 1.026-5.303 4.446-1.882Zm-40.357 7.013c0 5.473-.513 5.986-4.788 5.986-3.59 0-5.472-1.197-6.84-4.276-3.078-6.841-2.565-7.697 4.788-7.697 6.67 0 6.84.171 6.84 5.987Zm23.94 18.644c0 3.42-2.564 5.644-7.181 6.5-3.591.683-4.617.17-5.301-3.08-.855-4.447 0-5.815 4.788-8.723 2.736-1.54 3.762-1.368 5.643.855 1.026 1.54 2.052 3.592 2.052 4.448Zm38.306-5.987c.513.855.513 3.934 0 6.67-1.026 5.474-6.327 8.21-11.629 6.158-2.565-1.026-2.907-8.38-.342-12.486 1.368-2.223 10.603-2.566 11.97-.342Zm23.94 1.197c3.42 1.369 3.591 8.21.342 10.776-4.275 3.592-11.97 1.71-12.654-2.908-.342-2.223-.171-5.131.342-6.5 1.026-2.394 7.182-3.25 11.97-1.368Zm25.993 1.369c1.368 3.592-2.052 9.065-6.156 10.091-3.591.855-4.96-.513-5.814-6.842-.342-2.052.855-3.42 3.933-4.105 6.84-1.71 7.01-1.71 8.037.856Zm-71.993 5.473c0 2.737-.855 4.96-2.052 4.96s-2.223-.513-2.223-1.368v-5.644c0-2.737.855-4.106 2.223-3.763 1.026.513 2.052 3.078 2.052 5.815Zm19.324 21.894c.684 5.644-1.71 7.867-8.55 7.867-4.105 0-4.789-.684-4.789-5.13 0-9.237 12.313-11.974 13.339-2.737Zm26.163-3.592c1.71 2.223-.342 9.92-2.907 10.946-1.368.514-4.275.342-6.669-.17-3.249-.856-4.275-2.224-4.275-5.987 0-2.566.513-5.131 1.026-5.816 1.368-1.368 11.628-.684 12.825 1.027Zm-46.342 5.644c0 3.763-.342 4.276-2.565 2.395-1.368-1.198-2.565-3.25-2.565-4.447 0-1.369 1.197-2.395 2.565-2.395 1.71 0 2.565 1.71 2.565 4.447Z"/><path d="M253.56 55.668c0 .446 1.54 1.338 3.5 1.785 1.96.67 3.5.223 3.5-.67 0-1.115-1.54-2.008-3.5-2.008s-3.5.446-3.5.893Zm35.454.588c.57.76 2.656 1.519 4.363 1.519 2.845 0 2.845-.304.379-1.519-3.793-1.975-6.26-1.975-4.742 0Zm41.314 150.919c-14.091 2.386-21.996 8.692-22.512 18.067-.343 3.238-1.03 7.158-1.89 8.863-.86 2.045-.172 4.09 1.719 6.306 1.89 2.045 3.093 5.795 2.92 9.374-.171 3.239.516 5.966 1.376 5.966 1.03 0 1.718 2.045 1.718 4.431 0 6.818 3.093 11.25 7.046 10.056 2.405-.852 3.265-.34 3.265 1.875 0 2.557 1.546 2.727 14.778 1.875 8.592-.682 18.216-.341 22.855.852 7.046 1.534 8.936 1.364 15.295-1.875 8.592-4.26 8.592-4.26 8.248-.682-.172 2.557 1.547 3.068 11.342 3.239 6.358 0 12.544 1.022 13.92 2.045 2.92 2.386 8.076 1.023 8.076-2.216 0-1.193.343-4.26.859-6.988.687-3.75-.172-6.136-3.78-10.056-4.64-4.943-6.703-5.965-25.949-12.953-9.623-3.58-23.37-4.432-36.775-2.386-8.076 1.193-8.248 1.022-8.248-3.068 0-3.068 1.718-5.284 5.67-7.67 7.734-4.773 31.964-10.909 38.15-9.886 2.75.511 6.186.341 7.561-.511 2.922-1.875 1.203-6.988-2.406-6.988-1.374 0-2.577-.682-2.577-1.364s-2.234-2.216-5.156-3.238c-2.75-1.023-5.155-1.364-5.155-.512 0 .853-2.75.682-6.186-.34-3.437-.853-7.218-1.194-8.42-.853-1.204.512-2.922.17-3.61-.511-2.577-2.557-19.761-3.068-32.134-.852Zm58.083 41.076c3.78 2.045 7.218 4.943 7.561 6.647.516 2.727-.343 2.898-6.014 1.875-3.78-.681-11.342-1.534-17.013-2.045-17.184-1.364-21.48-2.386-21.48-4.943 0-6.477 25.26-7.5 36.946-1.534Zm-11.685 11.931c-.516.511-2.062.682-3.265.17-1.375-.51-.86-1.022 1.03-1.022 1.891-.17 2.922.34 2.235.852Z"/><path d="M399.528 224.756c1.21.908 2.421 3.632 2.94 5.81.865 4.722 8.994 13.439 11.242 11.986.865-.545 2.075 0 2.767 1.09.692 1.453.52 1.634-.692.908-1.21-.727-2.075-.545-2.075.545 0 3.45 2.767 3.632 4.843.181 1.556-2.905 1.383-3.813-1.038-5.81-1.73-1.272-4.67-5.086-6.4-8.354-1.902-3.088-4.323-5.812-5.36-5.812-1.212 0-3.633-.544-5.363-1.09-2.075-.726-2.42-.544-.864.546Zm-34.968 55.519c0 .75.75 1.5 1.5 1.5.9 0 1.5-.75 1.5-1.5 0-.9-.6-1.5-1.5-1.5-.75 0-1.5.6-1.5 1.5Zm-26.12 1.825c4.344 5.075 23.06 10.675 35.258 10.675 6.016 0 10.862-.7 10.862-1.575s-5.013-2.45-11.196-3.675c-6.183-1.05-15.373-3.5-20.387-5.425-5.18-1.75-11.029-3.325-13.368-3.325-3.844 0-3.844.175-1.17 3.325Zm150.928 38.778c-4.005 3.684-4.369 5.192-3.277 12.226 1.274 8.039 5.643 19.762 6.917 18.59.91-.838 6.552-28.471 6.552-32.156 0-4.187-4.914-3.517-10.192 1.34Zm-230.103 2.176c-4.974 6.818-8.705 16.148-8.705 22.248 0 3.409.178 3.409 3.02-.718 1.6-2.512 4.797-6.638 7.106-9.15 3.376-3.588 4.264-6.28 3.73-11.662l-.532-6.997-4.619 6.28ZM478.56 367.3c0 11.258 1.21 15.123 2.419 7.562 1.008-6.217.705-12.098-.907-15.627-1.31-2.856-1.41-2.184-1.512 8.065Zm-269 34.486c0 .914.75 1.28 1.5.731.9-.548 1.5-1.462 1.5-2.01 0-.366-.6-.732-1.5-.732-.75 0-1.5.914-1.5 2.011Zm183.211 127.489c-.386.75-.257 1.5.516 1.5.644 0 1.676-.75 2.062-1.5.387-.9.258-1.5-.515-1.5-.645 0-1.676.6-2.063 1.5Zm-19.996 2.117c0 .958-.594 2.872-1.039 4.149-.593 1.596.297 2.234 2.967 2.234 2.077 0 3.857-.479 3.857-1.277 0-.797-.89-1.436-2.077-1.436-1.186 0-2.522-1.276-2.818-2.872-.445-1.436-.742-1.915-.89-.798Z"/></g></g></svg>