<?xml version="1.0" standalone="no"?>
<!DOCTYPE svg PUBLIC "-//W3C//DTD SVG 20010904//EN"
 "http://www.w3.org/TR/2001/REC-SVG-20010904/DTD/svg10.dtd">
<svg version="1.0" xmlns="http://www.w3.org/2000/svg"
 width="600.000000pt" height="600.000000pt" viewBox="0 0 600.000000 600.000000"
 preserveAspectRatio="xMidYMid meet">
<metadata>
Created by potrace 1.14, written by Peter Selinger 2001-2017
</metadata>
<g transform="translate(0.000000,600.000000) scale(0.100000,-0.100000)"
fill="#000000" stroke="none">
<path d="M0 3000 l0 -3000 3000 0 3000 0 0 3000 0 3000 -3000 0 -3000 0 0
-3000z m2941 2330 c24 -6 71 -16 103 -21 65 -10 146 -51 146 -74 0 -22 -43
-18 -58 5 -16 25 -60 27 -58 3 0 -12 -4 -16 -14 -14 -8 3 -52 4 -97 3 -51 -1
-83 2 -83 8 0 5 19 10 43 10 30 0 38 3 27 10 -8 5 -22 7 -31 5 -9 -3 -27 4
-42 15 -14 11 -36 20 -49 20 -22 -1 -22 -1 -5 -14 21 -16 6 -32 -20 -22 -9 4
-40 9 -70 12 -29 2 -65 9 -79 14 -35 14 -44 13 -44 -5 0 -16 -38 -29 -67 -23
-15 4 -13 7 11 19 l29 14 -24 6 c-24 7 -24 7 -1 8 12 1 22 7 22 16 0 10 16 15
63 17 103 6 251 0 298 -12z m-472 -64 c7 -8 8 -17 3 -20 -15 -9 -52 5 -52 20
0 18 34 18 49 0z m366 -26 c3 -5 -1 -10 -9 -10 -9 0 -16 5 -16 10 0 6 4 10 9
10 6 0 13 -4 16 -10z m407 -18 c17 -17 -4 -15 -28 2 -17 13 -17 14 -1 12 9 -1
23 -8 29 -14z m-837 -21 c-3 -6 -11 -11 -17 -11 -6 0 -6 6 2 15 14 17 26 13
15 -4z m350 0 c3 -5 0 -13 -5 -16 -15 -9 -60 3 -60 15 0 13 57 13 65 1z m572
-28 c-4 -3 1 -15 10 -26 18 -20 18 -20 -9 -2 -31 20 -36 35 -11 35 9 0 13 -3
10 -7z m-532 -23 c8 -13 -15 -13 -35 0 -12 8 -11 10 7 10 12 0 25 -4 28 -10z
m495 -45 c110 -56 248 -162 284 -219 66 -106 96 -170 103 -215 3 -20 17 -51
30 -69 14 -18 22 -39 19 -47 -3 -8 3 -16 13 -20 13 -4 16 -13 13 -35 -3 -22 0
-30 10 -30 8 0 21 -12 28 -26 12 -21 12 -27 1 -33 -15 -10 -8 -41 18 -81 82
-127 98 -173 126 -355 9 -60 21 -130 26 -155 6 -25 17 -80 26 -123 10 -44 20
-74 25 -69 5 5 12 51 15 102 5 72 10 97 25 112 24 24 49 23 82 -3 26 -20 26
-24 21 -97 -5 -76 -14 -180 -34 -381 -17 -172 -53 -261 -106 -261 -26 0 -26
-2 -49 -100 -8 -36 -25 -95 -39 -132 -20 -56 -23 -75 -16 -125 12 -87 30 -338
30 -420 1 -135 -55 -250 -216 -436 -73 -85 -262 -245 -312 -264 -21 -8 -39
-24 -41 -38 -2 -9 -59 -10 -121 -3 -30 4 -41 28 -12 28 11 0 23 5 26 10 3 6
-1 10 -9 10 -9 0 -16 5 -16 10 0 6 7 10 15 10 10 0 13 9 10 29 -2 23 0 28 11
24 8 -3 14 -1 14 5 0 5 -8 13 -17 16 -12 5 -14 9 -5 18 18 18 15 28 -8 28 -11
0 -20 3 -20 6 0 9 49 54 59 54 5 0 14 7 22 16 11 13 9 14 -14 9 -34 -9 -52 2
-36 21 9 11 9 17 -1 29 -21 25 27 151 63 164 12 5 46 32 76 60 29 28 56 51 58
51 3 0 14 11 24 24 10 13 30 27 43 30 14 3 27 15 31 26 4 11 12 17 21 13 7 -3
14 0 14 6 0 6 -4 11 -10 11 -18 0 -11 25 12 40 24 17 63 58 63 68 1 15 28 55
56 81 16 16 29 35 29 43 0 8 9 23 20 33 11 10 20 23 20 28 0 6 6 18 14 26 20
23 68 112 63 117 -2 3 -24 -18 -48 -46 -24 -27 -48 -50 -54 -50 -7 0 -18 -12
-25 -26 -13 -24 -15 -24 -27 -8 -12 16 -17 12 -14 -8 0 -5 -7 -8 -17 -8 -10 0
-25 -11 -32 -25 -7 -14 -22 -25 -32 -25 -10 0 -18 -6 -18 -13 0 -9 -11 -12
-35 -9 -28 3 -35 1 -35 -12 0 -10 5 -14 10 -11 16 10 12 -11 -5 -25 -12 -10
-15 -10 -15 0 0 7 -7 10 -15 6 -8 -3 -15 -1 -15 4 0 6 7 10 15 10 8 0 15 5 15
10 0 6 -5 10 -11 10 -5 0 -7 5 -4 10 3 6 1 10 -4 10 -6 0 -11 -7 -11 -16 0
-10 -6 -14 -14 -11 -8 3 -24 -5 -36 -18 -19 -20 -26 -22 -51 -13 -24 8 -28 14
-23 33 3 13 0 26 -7 30 -8 5 -10 4 -5 -3 4 -7 2 -12 -3 -12 -6 0 -11 -6 -11
-14 0 -25 -17 -27 -67 -5 -62 27 -73 29 -163 31 -55 1 -84 7 -109 22 -25 15
-55 21 -105 22 -82 2 -128 12 -120 26 4 6 -2 8 -15 3 -11 -3 -21 -3 -22 2 -3
30 -10 45 -35 68 -16 15 -30 22 -32 16 -6 -19 -26 -12 -54 22 -17 19 -28 26
-28 17 0 -8 -11 2 -25 23 -14 20 -32 37 -40 37 -21 0 -19 27 3 39 15 8 14 11
-11 20 -17 7 -32 23 -38 41 -6 16 -16 30 -22 30 -16 0 -48 58 -37 65 6 4 3 17
-6 31 -15 23 -15 26 0 43 22 24 20 34 -3 22 -15 -9 -20 -7 -24 10 -4 15 -2 18
7 10 7 -6 16 -8 19 -5 13 13 54 -7 65 -31 7 -16 30 -34 56 -46 25 -10 46 -24
48 -29 2 -5 24 -10 50 -11 42 -2 48 -5 60 -33 7 -17 11 -35 10 -40 -2 -5 23
-35 55 -67 55 -55 83 -72 83 -49 0 6 15 10 34 10 19 0 38 5 41 10 3 6 32 10
63 10 51 0 60 3 81 29 13 16 30 27 38 24 7 -3 13 0 13 6 0 6 9 11 20 11 22 0
26 10 8 28 -8 8 -8 15 1 26 7 8 10 19 7 25 -3 5 0 12 6 14 7 3 -32 5 -87 4
-96 -2 -124 1 -135 14 -12 13 -73 38 -82 33 -5 -3 -18 2 -29 12 -18 16 -18 18
-2 29 37 24 188 54 320 62 58 3 97 0 136 -11 30 -9 67 -16 81 -16 15 0 35 -5
46 -12 26 -16 70 7 70 37 0 11 5 26 12 33 7 7 8 12 3 12 -6 0 -30 18 -55 40
-34 30 -46 36 -52 26 -5 -8 -17 -12 -28 -9 -13 4 -26 -1 -34 -12 -11 -15 -17
-15 -54 -5 -32 10 -47 10 -69 1 -31 -12 -89 -9 -120 7 -10 5 -40 7 -67 5 -33
-3 -51 0 -57 8 -10 16 -139 15 -149 -1 -11 -18 -76 -24 -83 -8 -3 8 -2 19 1
24 11 14 72 33 88 27 8 -3 14 0 14 7 0 7 10 21 21 31 17 14 31 17 68 12 25 -3
48 -10 49 -15 7 -17 59 -7 80 15 22 23 24 79 4 99 -5 5 -7 30 -4 55 4 45 4 46
-22 41 -20 -4 -26 -2 -24 10 3 16 38 27 38 12 0 -5 16 -12 35 -16 31 -5 33 -8
24 -26 -12 -22 -12 -21 16 -36 14 -7 26 -7 46 3 30 16 37 35 29 84 -9 61 -86
89 -200 73 -44 -6 -68 -3 -125 15 -38 13 -72 23 -76 23 -3 0 -14 -16 -25 -36
-10 -20 -31 -42 -47 -50 -27 -14 -27 -16 -25 -99 2 -47 6 -85 10 -85 3 0 9
-13 13 -30 4 -16 11 -30 16 -30 6 0 8 -4 4 -9 -3 -5 -1 -12 5 -16 16 -10 11
-28 -6 -21 -10 4 -22 -1 -30 -11 -13 -17 -13 -17 -14 1 0 13 -5 16 -17 11 -10
-4 -25 -8 -33 -9 -8 0 -21 -9 -28 -19 -7 -9 -18 -15 -23 -12 -5 4 -9 2 -9 -4
0 -6 -12 -17 -26 -24 -17 -9 -23 -17 -15 -21 6 -4 11 -2 11 3 0 6 5 11 11 11
8 0 7 -5 -1 -15 -7 -9 -19 -14 -27 -11 -16 7 -17 -16 -1 -32 6 -6 9 -15 5 -18
-4 -4 -15 3 -24 15 l-18 22 -29 -24 c-20 -17 -24 -26 -15 -29 8 -3 11 -9 6
-14 -4 -4 -14 2 -23 14 -8 12 -19 20 -24 17 -5 -3 -11 -1 -15 4 -3 6 -12 8
-20 4 -8 -3 -15 -2 -15 1 0 4 13 12 29 17 21 7 29 17 29 35 0 13 -4 24 -9 24
-5 0 -9 -4 -9 -9 0 -11 -38 -21 -55 -15 -7 3 -15 14 -18 26 -4 15 -11 18 -26
13 -12 -4 -21 -2 -21 4 0 6 5 11 11 11 8 0 7 5 -1 15 -7 9 -20 13 -28 10 -8
-3 -22 1 -31 8 -9 8 -32 20 -51 27 -19 8 -41 22 -48 32 -18 24 -42 23 -42 -2
0 -11 -4 -20 -8 -20 -14 0 -31 134 -18 143 7 5 3 7 -9 5 -15 -2 -21 3 -23 22
-4 31 -31 150 -39 170 -4 8 -7 18 -8 23 -2 4 -3 8 -5 10 -6 7 -5 47 1 47 5 0
4 12 -2 27 -7 19 -6 35 2 55 7 18 8 36 2 55 -14 40 -16 130 -3 138 5 3 10 15
10 26 0 10 4 19 9 19 15 0 31 -93 22 -131 -10 -43 -4 -52 69 -106 43 -32 61
-40 85 -36 21 3 37 -2 54 -16 13 -12 32 -21 42 -21 43 0 158 34 206 61 63 35
142 91 142 102 2 16 -59 5 -92 -17 -36 -25 -77 -42 -77 -32 0 3 12 12 28 21
27 16 27 16 2 11 -89 -17 -103 -18 -97 -9 4 6 24 14 44 18 60 11 93 32 93 60
0 16 6 25 15 25 8 0 15 -4 15 -9 0 -25 30 -39 67 -30 29 6 44 4 61 -7 29 -19
41 -10 81 60 20 36 31 72 35 119 6 60 4 72 -15 100 -29 41 -55 67 -69 67 -5 0
-10 4 -10 9 0 6 -17 9 -37 7 -21 -2 -45 3 -53 10 -19 16 -133 19 -177 6 -17
-6 -34 -8 -36 -5 -7 7 -129 -39 -145 -54 -7 -7 -22 -13 -33 -13 -10 0 -19 -4
-19 -9 0 -19 -151 -160 -166 -154 -8 3 -21 -1 -30 -8 -13 -10 -17 -10 -25 2
-15 21 -4 126 15 144 17 17 23 50 7 41 -5 -3 -9 9 -9 28 0 21 6 37 15 40 8 3
11 1 8 -4 -4 -6 -4 -28 0 -48 5 -32 10 -38 30 -37 31 0 36 6 41 54 4 29 1 43
-9 47 -9 3 -13 21 -13 52 1 26 -10 80 -23 120 -24 71 -25 72 -36 45 -7 -15
-15 -45 -19 -65 -5 -27 -11 -36 -21 -31 -8 3 -15 13 -15 23 0 10 -7 21 -15 24
-12 4 -13 10 -6 25 6 10 8 21 5 24 -3 3 5 13 19 22 23 15 50 69 76 155 16 51
118 170 146 170 3 0 30 11 58 24 68 31 117 46 158 50 76 7 251 44 259 54 3 4
25 9 50 10 25 2 52 10 60 17 20 16 68 29 104 26 18 -2 26 1 22 8 -5 7 -1 8 9
5 8 -4 37 -1 63 6 59 16 193 27 252 21 25 -2 65 -14 90 -26z m205 -65 c3 -5 1
-10 -4 -10 -6 0 -11 5 -11 10 0 6 2 10 4 10 3 0 8 -4 11 -10z m-1512 -631 c4
-15 1 -19 -11 -17 -21 4 -29 38 -9 38 8 0 17 -9 20 -21z m517 -249 c32 -16 60
-41 60 -52 0 -4 -28 -8 -62 -8 -35 0 -92 -7 -127 -15 -36 -9 -67 -12 -70 -8
-3 4 -19 9 -36 11 -46 5 -60 24 -38 50 34 40 63 48 159 41 50 -3 101 -12 114
-19z m8 -86 c52 -14 17 -33 -83 -45 -38 -4 -85 -11 -104 -15 -49 -10 -32 12
33 42 50 23 108 30 154 18z m-18 -78 c0 -3 -4 -8 -10 -11 -5 -3 -10 -1 -10 4
0 6 5 11 10 11 6 0 10 -2 10 -4z m-75 -146 c-27 -12 -43 -12 -25 0 8 5 22 9
30 9 10 0 8 -3 -5 -9z m-575 -285 c0 -8 -7 -15 -15 -15 -16 0 -20 12 -8 23 11
12 23 8 23 -8z m828 -317 c20 -20 14 -33 -17 -35 -27 -2 -28 -1 -17 22 13 28
17 30 34 13z m-738 -84 c0 -30 -16 -31 -24 -1 -11 40 -8 51 9 37 8 -7 15 -23
15 -36z m680 32 c0 -2 -7 -7 -16 -10 -8 -3 -12 -2 -9 4 6 10 25 14 25 6z
m1415 -857 c10 -14 1 -21 -19 -13 -9 3 -13 10 -10 15 7 12 21 11 29 -2z m32
-100 c15 -29 17 -95 3 -104 -6 -3 -14 5 -19 18 -6 14 -16 27 -23 30 -7 3 -3 6
10 6 31 1 29 36 -5 58 -19 13 -28 14 -31 5 -4 -14 -32 -16 -32 -2 0 16 32 28
59 21 14 -4 32 -18 38 -32z m-73 -62 c-7 -20 -34 -23 -34 -4 0 19 22 39 32 29
5 -5 6 -16 2 -25z m116 -42 c0 -8 -2 -15 -4 -15 -2 0 -6 7 -10 15 -3 8 -1 15
4 15 6 0 10 -7 10 -15z m-110 -18 c0 -19 -21 -37 -42 -37 -21 0 -24 20 -6 38
16 16 48 15 48 -1z m54 -28 c16 -12 33 -18 45 -14 22 7 36 -19 22 -42 -6 -11
-10 -12 -16 -4 -5 9 -10 9 -21 0 -11 -9 -14 -7 -14 11 0 15 -5 20 -15 17 -9
-4 -19 5 -29 23 -17 35 -9 38 28 9z m-57 -63 c28 -34 66 -48 91 -33 19 12 32
-1 32 -33 0 -35 -19 -49 -36 -26 -11 16 -13 16 -22 1 -14 -25 -52 1 -52 36 0
26 -4 28 -54 20 -9 -1 -4 -44 8 -72 6 -14 1 -16 -38 -13 -25 1 -50 5 -56 9
-15 9 5 42 38 59 15 9 21 15 15 16 -21 0 -15 38 9 54 30 22 32 21 65 -18z
m-1687 -62 c0 -9 -5 -14 -12 -12 -18 6 -21 28 -4 28 9 0 16 -7 16 -16z m49
-78 c9 -11 6 -15 -14 -20 -30 -8 -45 -1 -45 20 0 18 44 19 59 0z m1674 -10 c5
-7 11 -5 18 7 22 38 51 13 42 -36 -7 -36 -21 -43 -38 -21 -13 18 -14 18 -34 0
-28 -26 -51 -14 -51 27 0 19 3 36 6 39 8 8 48 -3 57 -16z m-113 -26 c0 -20 -8
-35 -25 -46 -19 -13 -25 -25 -25 -54 0 -22 -7 -43 -16 -50 -11 -10 -14 -23 -9
-51 5 -31 3 -39 -15 -52 -12 -9 -19 -20 -15 -26 13 -22 -11 -10 -28 15 -27 36
-33 88 -13 115 9 13 16 31 16 40 0 9 9 28 20 42 11 14 20 37 20 51 0 29 23 45
63 46 23 0 27 -4 27 -30z m-1526 -52 c18 -25 13 -33 -26 -42 -24 -5 -28 -3
-34 20 -11 44 34 60 60 22z m1566 -32 c0 -33 -20 -62 -33 -49 -10 9 -9 27 3
57 14 37 30 32 30 -8z m88 -8 c4 -46 -23 -73 -37 -37 -4 13 -7 30 -5 37 12 38
15 43 27 40 6 -3 13 -20 15 -40z m-1606 -63 c13 -29 6 -40 -34 -50 -23 -6 -28
-3 -34 19 -13 52 46 79 68 31z m80 -2 c29 -35 32 -47 5 -27 -27 20 -43 44 -28
44 4 0 15 -8 23 -17z m1380 -11 c6 -22 -8 -62 -22 -62 -5 0 -10 18 -10 40 0
42 23 58 32 22z m98 -11 c0 -39 -9 -61 -25 -61 -20 0 -27 34 -14 64 16 35 39
34 39 -3z m84 -24 c-3 -9 -10 -17 -14 -17 -10 0 -21 41 -13 53 9 15 34 -18 27
-36z m-1491 -44 c21 -20 37 -39 37 -43 0 -11 -65 -1 -68 10 -2 6 -9 10 -16 10
-9 0 -15 43 -7 58 4 9 22 -3 54 -35z m-110 -2 c2 -11 1 -35 -3 -53 -4 -18 -8
-25 -9 -15 -1 13 -6 17 -20 12 -14 -4 -20 1 -25 21 -8 30 8 54 34 54 10 0 20
-9 23 -19z m1457 -23 c0 -18 -7 -41 -15 -52 -16 -21 -45 -15 -45 9 0 21 -17
19 -23 -2 -3 -10 -5 0 -6 22 0 35 1 38 13 22 13 -16 15 -16 30 8 24 36 46 33
46 -7z m80 0 c0 -19 -18 -43 -25 -36 -9 9 4 48 16 48 5 0 9 -6 9 -12z m50 -23
c0 -8 -4 -17 -10 -20 -6 -4 -10 5 -10 20 0 15 4 24 10 20 6 -3 10 -12 10 -20z
m-780 1 c0 -11 -19 -15 -25 -6 -3 5 1 10 9 10 9 0 16 -2 16 -4z m395 -36 c5
-19 0 -31 -19 -50 -15 -13 -26 -32 -26 -42 0 -22 -18 -24 -26 -3 -3 8 8 32 26
55 23 29 30 45 25 62 -5 16 -4 20 3 13 6 -5 13 -21 17 -35z m-399 -2 c8 -9
-34 -20 -46 -13 -19 12 -10 24 15 21 14 -1 28 -5 31 -8z m-617 -32 c12 -18 21
-41 21 -51 0 -17 -1 -17 -21 1 -24 22 -42 61 -33 75 8 14 11 12 33 -25z m1299
-11 c-4 -17 0 -29 10 -34 14 -8 14 -12 -1 -35 -24 -37 -33 -33 -40 19 -8 52
-1 75 20 75 11 0 14 -7 11 -25z m-1495 -5 c-3 -11 -7 -20 -9 -20 -2 0 -4 9 -4
20 0 11 4 20 9 20 5 0 7 -9 4 -20z m1231 -18 c-3 -9 -14 -28 -24 -42 l-20 -25
0 29 c0 30 26 69 40 61 5 -3 6 -13 4 -23z m143 16 c11 -19 13 -39 2 -32 -6 3
-17 0 -25 -7 -21 -17 -27 -6 -13 25 13 29 24 33 36 14z m-1157 -88 c23 -45 25
-60 7 -60 -17 0 -40 39 -44 78 -5 42 10 35 37 -18z m-210 -6 c0 -8 -4 -14 -10
-14 -5 0 -10 4 -10 9 0 5 -3 18 -7 28 -6 16 -5 16 10 4 9 -7 17 -20 17 -27z
m1427 20 c8 -21 -13 -64 -31 -64 -24 0 -28 17 -11 50 17 33 32 38 42 14z
m-277 -13 c-10 -21 -30 -37 -30 -26 0 14 21 45 31 45 6 0 6 -7 -1 -19z m-1296
-23 c18 -25 19 -23 -16 -32 -21 -5 -28 -2 -33 15 -5 14 -2 25 6 30 21 13 26
11 43 -13z m588 7 c72 -21 178 -105 178 -140 0 -3 -4 -4 -9 -1 -17 11 -22 -27
-6 -44 9 -10 17 -27 18 -39 1 -11 4 -21 7 -21 3 0 14 -7 24 -15 19 -14 19 -15
1 -35 -22 -25 -41 -26 -54 -2 -11 20 -89 62 -115 62 -25 0 -56 19 -56 33 0 7
-10 17 -22 22 -12 6 -29 24 -38 40 -9 17 -23 30 -31 31 -29 2 -51 17 -60 42
-15 38 -2 39 36 2 35 -34 47 -32 20 4 -21 28 -19 34 18 56 38 24 31 23 89 5z
m858 -30 c-7 -9 -15 -13 -17 -11 -7 7 7 26 19 26 6 0 6 -6 -2 -15z m190 -14
c0 -20 -19 -41 -37 -41 -18 0 -16 21 3 48 17 24 34 21 34 -7z m-113 -27 c9
-24 -14 -64 -37 -64 -16 0 -20 -7 -20 -36 0 -19 -6 -42 -14 -49 -19 -19 -51 5
-66 50 -10 29 -9 38 7 59 12 17 24 23 36 20 12 -4 24 2 33 15 18 25 52 28 61
5z m-257 -18 c0 -8 -12 -28 -26 -43 l-26 -28 6 35 c6 31 20 49 39 50 4 0 7 -6
7 -14z m-1236 -22 c9 -24 7 -31 -10 -38 -41 -16 -73 22 -36 43 25 15 39 13 46
-5z m443 -36 c-3 -8 -6 -5 -6 6 -1 11 2 17 5 13 3 -3 4 -12 1 -19z m1144 10
c-1 -5 -1 -17 -1 -28 0 -22 -47 -47 -61 -33 -11 11 32 74 49 71 7 -2 13 -6 13
-10z m-1573 -97 c-2 -21 -9 -27 -35 -29 -31 -3 -33 -1 -33 27 0 31 17 41 53
33 13 -3 17 -12 15 -31z m1003 17 c-8 -23 -51 -38 -51 -19 0 6 9 11 19 11 10
0 21 7 25 15 3 8 8 15 10 15 3 0 2 -10 -3 -22z m-398 -45 c13 -7 -3 -23 -23
-23 -11 0 -24 9 -30 20 -10 19 -9 20 17 14 15 -4 31 -9 36 -11z m597 -6 c0
-14 -46 -44 -55 -36 -2 3 2 15 11 27 17 24 44 30 44 9z m173 -1 c6 -16 -2 -28
-14 -20 -12 7 -11 34 0 34 5 0 11 -6 14 -14z m175 -18 c-3 -29 -7 -33 -35 -36
-27 -3 -33 0 -33 17 0 25 26 51 51 51 17 0 20 -6 17 -32z m-248 12 c0 -5 -4
-10 -9 -10 -6 0 -13 5 -16 10 -3 6 1 10 9 10 9 0 16 -4 16 -10z m-224 -31 c3
-23 -7 -35 -38 -42 -35 -9 -43 6 -22 38 19 29 56 31 60 4z m-1069 -21 c5 -7 9
-24 9 -38 -1 -21 -6 -25 -31 -25 -26 0 -30 4 -33 32 -3 30 2 35 39 42 4 0 11
-5 16 -11z m1409 -15 c-10 -10 -19 5 -10 18 6 11 8 11 12 0 2 -7 1 -15 -2 -18z
m-1264 -17 c15 -22 8 -36 -20 -36 -32 0 -52 16 -52 43 0 16 5 18 33 12 17 -4
35 -13 39 -19z m1162 -1 c9 -37 -10 -68 -37 -61 -12 3 -28 6 -34 6 -7 0 -13
11 -13 24 0 53 72 79 84 31z m-144 -22 c0 -25 -30 -53 -57 -53 -29 0 -29 10 2
44 27 29 55 34 55 9z m340 -11 c0 -4 -6 -20 -12 -35 -13 -26 -34 -32 -32 -9 1
7 2 21 3 32 0 13 8 20 21 20 11 0 20 -4 20 -8z m-1068 -29 c30 -27 23 -49 -16
-50 -34 -1 -45 13 -46 55 0 18 40 15 62 -5z m259 7 c24 -13 25 -40 1 -40 -21
0 -62 27 -62 41 0 12 36 12 61 -1z m707 -22 c-3 -28 -7 -34 -32 -36 -36 -4
-50 10 -42 42 5 22 12 26 42 26 34 0 35 -1 32 -32z m-518 15 c-1 -5 -7 -19
-14 -32 -11 -21 -11 -30 0 -57 19 -45 18 -60 -6 -84 -26 -26 -65 -25 -92 2
-13 13 -27 23 -33 24 -5 0 -16 2 -22 2 -7 1 -13 15 -13 31 0 30 19 45 45 35 8
-4 15 -1 15 5 0 6 24 26 52 46 53 35 68 41 68 28z m138 -23 c-3 -21 -9 -25
-40 -28 -40 -3 -46 5 -28 38 7 13 20 19 41 17 25 -2 29 -6 27 -27z m237 2 c1
-4 6 -17 13 -30 18 -32 11 -64 -15 -78 -13 -6 -20 -14 -16 -17 3 -4 -1 -7 -10
-7 -10 0 -14 5 -11 15 4 9 0 15 -10 15 -11 0 -16 9 -16 28 0 32 8 45 35 60 14
8 16 12 5 12 -13 0 -13 1 0 10 14 9 25 5 25 -8z m-1116 -3 c25 -9 31 -16 31
-39 0 -35 -6 -39 -48 -33 -33 5 -51 36 -38 68 6 18 13 18 55 4z m434 -18 c3
-14 -1 -21 -16 -25 -11 -3 -24 -3 -29 0 -13 9 -9 24 7 24 8 0 14 3 14 8 -5 29
16 24 24 -7z m-558 -15 c0 -38 -17 -43 -32 -10 -14 31 -8 47 15 42 11 -2 17
-13 17 -32z m293 3 c3 -23 -1 -27 -27 -31 -36 -5 -51 7 -51 40 0 21 4 23 38
20 32 -3 37 -7 40 -29z m820 -36 c4 -28 -23 -53 -59 -53 -33 0 -33 -1 -19 35
9 24 44 47 65 41 6 -1 11 -12 13 -23z m-663 -58 c0 -27 -3 -30 -37 -33 -36 -3
-38 -2 -38 26 0 37 7 44 45 40 26 -3 30 -7 30 -33z m143 25 c6 0 12 -11 12
-25 0 -22 -4 -25 -35 -25 -33 0 -35 2 -35 31 0 28 3 31 23 25 12 -3 28 -6 35
-6z m381 1 c19 -12 -2 -49 -36 -62 -16 -6 -23 -14 -19 -24 3 -8 2 -15 -3 -15
-14 0 -23 68 -11 90 11 21 45 26 69 11z m401 5 c0 -3 -4 -16 -10 -30 -7 -20
-16 -26 -40 -26 -27 0 -30 3 -30 30 0 28 2 30 40 30 22 0 40 -2 40 -4z m-1062
-48 c4 -30 -24 -51 -60 -46 -16 2 -22 11 -23 31 -1 32 13 43 53 42 22 0 28 -5
30 -27z m-160 10 c7 -7 12 -23 12 -36 0 -21 -4 -23 -42 -20 -44 3 -57 20 -44
54 7 17 57 19 74 2z m1065 -31 c22 -15 26 -22 21 -45 -10 -40 -10 -40 -49 -28
-26 8 -35 16 -35 33 0 28 22 76 29 66 3 -5 18 -16 34 -26z m-1203 13 c0 -5 -4
-10 -10 -10 -5 0 -10 5 -10 10 0 6 5 10 10 10 6 0 10 -4 10 -10z m1077 -36 c9
-25 -13 -61 -42 -68 -34 -9 -37 -6 -29 33 4 20 15 36 28 41 30 13 36 12 43 -6z
m-382 -45 c0 -31 -3 -34 -30 -34 -27 0 -30 3 -28 29 4 49 10 57 35 47 18 -6
23 -16 23 -42z m82 37 c-4 -9 2 -17 14 -21 24 -8 27 -60 3 -69 -31 -12 -44 -6
-52 27 -6 24 -5 38 7 54 18 25 36 31 28 9z m-347 -55 c0 -21 -6 -30 -22 -35
-40 -10 -48 -7 -48 22 0 22 6 31 28 38 35 14 42 9 42 -25z m148 2 c-2 -23 -8
-29 -35 -31 -31 -3 -33 -1 -33 27 0 29 3 31 36 31 33 0 35 -2 32 -27z m374 -8
c-2 -16 -7 -34 -12 -39 -15 -15 -57 2 -63 26 -8 31 11 50 47 46 28 -3 31 -6
28 -33z m368 5 c-12 -16 -28 -30 -36 -30 -9 0 -14 11 -14 30 0 28 3 30 36 30
l35 0 -21 -30z m-1172 -39 c-3 -23 -8 -26 -44 -29 -42 -3 -42 -3 -39 30 2 28
7 34 31 39 37 7 56 -7 52 -40z m144 37 c3 -7 2 -24 -2 -38 -5 -21 -12 -25 -40
-25 -32 0 -35 2 -35 30 0 30 4 32 66 44 4 0 9 -5 11 -11z m899 -48 c12 -7 17
-18 15 -33 -3 -12 -5 -26 -5 -30 -1 -4 -13 -6 -28 -3 -16 2 -31 5 -35 5 -10 1
-10 55 -1 64 9 10 31 9 54 -3z m-125 -44 c1 -20 -6 -31 -26 -41 -30 -16 -40
-11 -40 17 0 22 37 61 53 55 7 -2 12 -16 13 -31z m-392 11 c38 -28 -7 -92 -57
-79 -14 4 -17 11 -11 36 11 54 33 68 68 43z m-254 -68 c-7 -12 -21 -19 -40
-19 -25 0 -30 4 -30 24 0 26 15 42 45 48 25 5 39 -26 25 -53z m378 51 c7 0 12
-14 12 -35 0 -19 -4 -35 -9 -35 -5 0 -16 -3 -24 -6 -24 -9 -44 21 -39 56 4 27
8 31 26 26 11 -3 27 -6 34 -6z m-260 -6 c15 -4 22 -14 22 -31 0 -21 -4 -24
-27 -21 -22 2 -29 9 -31 31 -4 29 0 30 36 21z m416 -20 c8 -32 -4 -49 -38 -52
-29 -2 -41 12 -41 51 0 24 3 27 36 27 31 0 38 -4 43 -26z m-808 -19 c4 -8 3
-23 -1 -32 -6 -17 -7 -17 -21 1 -8 11 -14 26 -14 33 0 18 29 16 36 -2z m142
-21 c3 -26 -1 -33 -22 -38 -36 -9 -56 2 -56 33 0 36 8 43 45 39 26 -3 30 -8
33 -34z m880 -12 c9 -6 7 -14 -8 -30 -12 -12 -25 -22 -30 -22 -15 0 -12 48 3
53 18 8 21 8 35 -1z m-134 -89 c-15 -11 -19 -11 -26 0 -11 20 2 55 21 59 24 5
28 -42 5 -59z m-616 1 c-2 -25 -8 -29 -35 -32 -26 -3 -33 0 -33 15 0 23 10 37
35 51 26 14 37 2 33 -34z m252 11 c0 -57 -72 -76 -78 -21 -5 44 4 56 43 56 33
0 35 -2 35 -35z m128 15 c9 0 12 -11 10 -32 -3 -30 -6 -33 -40 -36 -37 -3 -38
-2 -38 31 0 40 8 50 35 43 11 -3 26 -6 33 -6z m154 -21 c-4 -40 -10 -49 -36
-49 -29 0 -45 22 -38 55 3 20 9 23 41 21 32 -2 36 -5 33 -27z m-426 7 c20 -20
18 -50 -2 -42 -9 3 -18 6 -20 6 -2 0 -4 11 -4 25 0 29 6 31 26 11z m-236 -41
c0 -32 -3 -35 -28 -35 -21 0 -32 7 -40 25 -18 40 -15 45 28 45 39 0 40 -1 40
-35z m140 -109 c0 -20 -15 -33 -42 -38 -21 -4 -27 -1 -31 18 -5 26 0 34 28 51
16 9 22 8 33 -5 6 -9 12 -21 12 -26z m224 35 c3 -5 3 -23 0 -39 -6 -32 -37
-48 -68 -36 -15 6 -17 49 -2 73 8 13 62 15 70 2z m140 -7 c20 -8 21 -48 2 -63
-25 -21 -70 -10 -74 17 -2 13 -1 30 2 38 6 14 42 19 70 8z m152 -8 c8 -21 -12
-53 -36 -59 -21 -5 -29 3 -34 40 -2 12 5 20 23 24 40 10 41 10 47 -5z m-421
-32 c0 -16 -5 -29 -12 -29 -7 0 -13 3 -13 8 0 4 0 19 0 33 0 16 5 24 13 22 6
-3 12 -18 12 -34z m113 -128 c4 -33 -10 -46 -50 -46 -24 0 -28 4 -28 30 0 54
72 70 78 16z m153 21 c10 -13 -2 -58 -17 -64 -8 -3 -25 -2 -39 1 -19 5 -25 13
-25 35 0 15 3 30 6 34 8 8 68 4 75 -6z m-271 -33 c0 -22 -2 -25 -15 -14 -8 7
-15 19 -15 26 0 8 7 14 15 14 10 0 15 -10 15 -26z"/>
<path d="M2710 5306 c0 -2 11 -6 25 -8 14 -3 25 -1 25 3 0 5 -11 9 -25 9 -14
0 -25 -2 -25 -4z"/>
<path d="M2915 5300 c3 -5 14 -10 23 -10 15 0 15 2 2 10 -20 13 -33 13 -25 0z"/>
<path d="M3147 4415 c-82 -14 -128 -51 -131 -106 -2 -19 -6 -42 -11 -52 -5
-12 -1 -24 10 -37 11 -12 18 -34 17 -55 -1 -19 3 -35 8 -35 6 0 10 -12 10 -26
0 -40 18 -66 41 -59 14 5 19 2 19 -11 0 -15 9 -16 86 -11 50 4 106 2 133 -5
41 -9 52 -8 89 11 50 25 50 25 48 4 -1 -15 9 -18 66 -19 37 0 73 -6 81 -12 17
-14 47 -6 47 13 0 7 2 25 5 41 4 22 -1 36 -22 59 -27 29 -39 35 -151 76 -56
21 -136 26 -214 14 -47 -7 -48 -6 -48 18 0 18 10 31 33 45 45 28 186 64 222
58 16 -3 36 -2 44 3 17 11 7 41 -14 41 -8 0 -15 4 -15 8 0 4 -13 13 -30 19
-16 6 -30 8 -30 3 0 -5 -16 -4 -36 2 -20 5 -42 7 -49 5 -7 -3 -17 -1 -21 3
-15 15 -115 18 -187 5z m338 -241 c22 -12 42 -29 44 -39 3 -16 -2 -17 -35 -11
-22 4 -66 9 -99 12 -100 8 -125 14 -125 29 0 38 147 44 215 9z m-68 -70 c-3
-3 -12 -4 -19 -1 -8 3 -5 6 6 6 11 1 17 -2 13 -5z"/>
<path d="M3568 4313 c7 -5 14 -20 17 -32 5 -26 52 -74 65 -66 5 3 12 0 16 -6
4 -8 3 -9 -4 -5 -7 4 -12 3 -12 -3 0 -19 16 -20 28 -1 9 16 8 21 -6 32 -10 7
-27 28 -37 46 -11 17 -25 32 -31 32 -7 0 -21 3 -31 6 -12 4 -14 3 -5 -3z"/>
<path d="M3350 3990 c0 -5 5 -10 10 -10 6 0 10 5 10 10 0 6 -4 10 -10 10 -5 0
-10 -4 -10 -10z"/>
<path d="M3204 3971 c26 -29 138 -61 211 -61 36 0 65 4 65 9 0 5 -30 14 -67
21 -37 6 -92 20 -122 31 -31 10 -66 19 -80 19 -23 0 -23 -1 -7 -19z"/>
<path d="M4084 3765 c-22 -22 -24 -31 -18 -73 7 -48 31 -118 38 -111 5 5 36
170 36 192 0 25 -27 21 -56 -8z"/>
<path d="M2729 3740 c-28 -38 -49 -90 -49 -124 0 -19 1 -19 17 4 9 14 27 37
40 51 19 20 24 35 21 65 l-3 39 -26 -35z"/>
<path d="M4020 3488 c0 -67 12 -90 24 -45 10 37 7 72 -9 93 -13 17 -14 13 -15
-48z"/>
<path d="M2440 3279 c0 -5 5 -7 10 -4 6 3 10 8 10 11 0 2 -4 4 -10 4 -5 0 -10
-5 -10 -11z"/>
<path d="M3525 2530 c-3 -5 -2 -10 4 -10 5 0 13 5 16 10 3 6 2 10 -4 10 -5 0
-13 -4 -16 -10z"/>
<path d="M3401 2523 c0 -6 -4 -18 -7 -26 -4 -10 2 -14 20 -14 14 0 26 3 26 8
0 5 -6 9 -14 9 -8 0 -17 8 -19 18 -3 9 -5 12 -6 5z"/>
<path d="M3325 1930 c-3 -5 1 -10 9 -10 9 0 16 5 16 10 0 6 -4 10 -9 10 -6 0
-13 -4 -16 -10z"/>
</g>
</svg>
